<svg width="32" height="32" viewBox="0 0 32 32" fill="none" xmlns="http://www.w3.org/2000/svg">
    <g filter="url(#filter0_d_6111_4423)">
        <path d="M12.8867 21.3333C13.7151 21.3333 14.3867 20.6618 14.3867 19.8333C14.3867 19.0049 13.7151 18.3333 12.8867 18.3333C12.0583 18.3333 11.3867 19.0049 11.3867 19.8333C11.3867 20.6618 12.0583 21.3333 12.8867 21.3333Z"
              fill="white"/>
        <path d="M22 21.3333C22.8284 21.3333 23.5 20.6618 23.5 19.8333C23.5 19.0049 22.8284 18.3333 22 18.3333C21.1716 18.3333 20.5 19.0049 20.5 19.8333C20.5 20.6618 21.1716 21.3333 22 21.3333Z"
              fill="white"/>
        <path d="M26.0533 3.58C25.9913 3.50352 25.913 3.44174 25.8243 3.39909C25.7355 3.35644 25.6384 3.33398 25.54 3.33333H11.66L12.0933 4.66667H24.6666L22.8866 12.6667H12.8866L9.83995 3.02C9.807 2.91764 9.74977 2.82477 9.67315 2.74931C9.59654 2.67386 9.5028 2.61805 9.39995 2.58667L6.66662 1.74667C6.58257 1.72084 6.49426 1.71182 6.40673 1.72012C6.3192 1.72842 6.23416 1.75389 6.15647 1.79505C5.99956 1.87819 5.88211 2.02026 5.82995 2.19C5.77779 2.35974 5.7952 2.54325 5.87834 2.70015C5.96148 2.85706 6.10355 2.97451 6.27329 3.02667L8.66662 3.76L11.7266 13.4267L10.6333 14.32L10.5466 14.4067C10.2762 14.7183 10.1229 15.1145 10.1132 15.5271C10.1034 15.9396 10.2378 16.3426 10.4933 16.6667C10.675 16.8876 10.9059 17.063 11.1675 17.1788C11.4291 17.2945 11.7142 17.3475 12 17.3333H23.1266C23.3034 17.3333 23.473 17.2631 23.598 17.1381C23.723 17.013 23.7933 16.8435 23.7933 16.6667C23.7933 16.4899 23.723 16.3203 23.598 16.1953C23.473 16.0702 23.3034 16 23.1266 16H11.8933C11.8165 15.9974 11.7417 15.975 11.6761 15.935C11.6105 15.8951 11.5563 15.8389 11.5188 15.7718C11.4813 15.7048 11.4617 15.6292 11.4619 15.5524C11.4621 15.4756 11.4821 15.4002 11.52 15.3333L13.1266 14H23.42C23.5741 14.0038 23.7247 13.954 23.8463 13.8592C23.9678 13.7644 24.0527 13.6304 24.0866 13.48L26.2 4.14667C26.2202 4.04728 26.2176 3.94457 26.1921 3.84638C26.1667 3.74818 26.1192 3.65707 26.0533 3.58Z"
              fill="white"/>
    </g>
    <defs>
        <filter id="filter0_d_6111_4423" x="0" y="0" width="32" height="32" filterUnits="userSpaceOnUse"
                color-interpolation-filters="sRGB">
            <feFlood flood-opacity="0" result="BackgroundImageFix"/>
            <feColorMatrix in="SourceAlpha" type="matrix" values="0 0 0 0 0 0 0 0 0 0 0 0 0 0 0 0 0 0 127 0"
                           result="hardAlpha"/>
            <feOffset dy="4"/>
            <feGaussianBlur stdDeviation="2"/>
            <feComposite in2="hardAlpha" operator="out"/>
            <feColorMatrix type="matrix" values="0 0 0 0 0 0 0 0 0 0 0 0 0 0 0 0 0 0 0.25 0"/>
            <feBlend mode="normal" in2="BackgroundImageFix" result="effect1_dropShadow_6111_4423"/>
            <feBlend mode="normal" in="SourceGraphic" in2="effect1_dropShadow_6111_4423" result="shape"/>
        </filter>
    </defs>
</svg>
