<svg width="28" height="30" viewBox="0 0 28 30" fill="none" xmlns="http://www.w3.org/2000/svg">
<g filter="url(#filter0_d_6110_4136)">
<path fill-rule="evenodd" clip-rule="evenodd" d="M4 12.0558C4 17.0275 7.61083 21.1617 12.3333 22V14.7775H9.83333V12H12.3333V9.7775C12.3333 7.2775 13.9442 5.88917 16.2225 5.88917C16.9442 5.88917 17.7225 6 18.4442 6.11083V8.66667H17.1667C15.9442 8.66667 15.6667 9.2775 15.6667 10.0558V12H18.3333L17.8892 14.7775H15.6667V22C20.3892 21.1617 24 17.0283 24 12.0558C24 6.525 19.5 2 14 2C8.5 2 4 6.525 4 12.0558Z" fill="#359740"/>
</g>
<defs>
<filter id="filter0_d_6110_4136" x="0" y="2" width="28" height="28" filterUnits="userSpaceOnUse" color-interpolation-filters="sRGB">
<feFlood flood-opacity="0" result="BackgroundImageFix"/>
<feColorMatrix in="SourceAlpha" type="matrix" values="0 0 0 0 0 0 0 0 0 0 0 0 0 0 0 0 0 0 127 0" result="hardAlpha"/>
<feOffset dy="4"/>
<feGaussianBlur stdDeviation="2"/>
<feComposite in2="hardAlpha" operator="out"/>
<feColorMatrix type="matrix" values="0 0 0 0 0 0 0 0 0 0 0 0 0 0 0 0 0 0 0.25 0"/>
<feBlend mode="normal" in2="BackgroundImageFix" result="effect1_dropShadow_6110_4136"/>
<feBlend mode="normal" in="SourceGraphic" in2="effect1_dropShadow_6110_4136" result="shape"/>
</filter>
</defs>
</svg>
