<svg width="105" height="29" viewBox="0 0 105 29" fill="none" xmlns="http://www.w3.org/2000/svg">
<g clip-path="url(#clip0_2_17)" filter="url(#filter0_d_2_17)">
<path d="M4 18.2738L6.34072 15.6633C7.51215 16.9686 9.09913 17.4041 10.8163 17.4041C12.9498 17.4041 14.095 16.5048 14.095 14.8514C14.095 14.1256 13.9131 13.5166 13.5229 13.1107C13.1581 12.7343 12.7416 12.5312 11.883 12.386L9.64573 12.0379C8.05875 11.777 6.88732 11.226 6.05516 10.3267C5.17036 9.3398 4.7285 8.00518 4.7285 6.26552C4.7285 2.58112 7.17395 0 11.181 0C13.7301 0 15.5783 0.69623 17.1653 2.40761L14.875 4.93071C13.7047 3.6833 12.2996 3.50979 11.0762 3.50979C9.15087 3.50979 8.21416 4.69937 8.21416 6.12029C8.21416 6.64191 8.37063 7.19309 8.76075 7.59904C9.12563 7.97672 9.72397 8.29527 10.4777 8.41223L12.6643 8.76034C14.3547 9.02125 15.4216 9.54287 16.2019 10.3548C17.1916 11.3993 17.6334 12.9074 17.6334 14.7356C17.6334 18.7376 14.6414 21 10.7643 21C7.95419 21 5.82062 20.3331 4 18.2738Z" fill="#359740"/>
<path d="M21.0422 20.8264V0.173492H33.2442V3.77067H24.658V8.61527H31.9702V12.2112H24.658V17.2293H33.2442V20.8264H21.0422Z" fill="#359740"/>
<path d="M36.784 20.8264V0.173492H48.986V3.77067H40.3998V8.61527H47.712V12.2112H40.3998V17.2293H48.986V20.8264H36.784Z" fill="#359740"/>
<path d="M79.5077 20.8264L75.8906 12.5888H73.2887V20.8264H69.6729V0.173492H76.932C80.7043 0.173492 82.9416 3.04599 82.9416 6.49684C82.9416 9.39761 81.3546 11.1962 79.5594 11.922L83.6966 20.8264H79.5077ZM76.6973 3.77067H73.2887V9.22428H76.6973C78.2843 9.22428 79.3257 8.09255 79.3257 6.49684C79.3257 4.90241 78.2843 3.77067 76.6973 3.77067Z" fill="#359740"/>
<path d="M97.2265 20.8264L96.1343 17.1714H89.5517L88.432 20.8264H84.6598L91.3988 0.173492H94.2344L101 20.8264H97.2265ZM92.9076 6.26549L90.5656 13.7784H95.1711L92.9076 6.26549Z" fill="#359740"/>
<path d="M64.1041 2.14669C62.8807 0.783611 61.1373 0.173492 59.2119 0.173492H52.5258V20.8264H56.5798C57.9762 16.8158 60.0899 12.4403 58.6492 5.95777C60.5685 12.7179 58.6702 17.0141 57.3305 20.8264H59.2119C61.1373 20.8264 62.8807 20.2174 64.1039 18.8543C66.1857 16.533 65.9773 13.5164 65.9773 10.4126C65.9775 7.30984 66.1859 4.4669 64.1041 2.14669ZM58.5232 18.3867C59.5609 15.7915 60.6516 11.6286 59.0997 6.52511C61.1763 9.12624 61.4979 12.97 61.0578 14.7236C64.8161 10.5128 60.9536 5.59313 57.0999 3.49692C59.5571 8.10466 59.1865 12.4462 57.2785 17.6694C51.2841 13.4709 58.4005 8.12211 56.3837 2.36555C65.0891 6.09768 66.641 14.4906 58.5232 18.3867Z" fill="#359740"/>
</g>
<defs>
<filter id="filter0_d_2_17" x="0" y="0" width="105" height="29" filterUnits="userSpaceOnUse" color-interpolation-filters="sRGB">
<feFlood flood-opacity="0" result="BackgroundImageFix"/>
<feColorMatrix in="SourceAlpha" type="matrix" values="0 0 0 0 0 0 0 0 0 0 0 0 0 0 0 0 0 0 127 0" result="hardAlpha"/>
<feOffset dy="4"/>
<feGaussianBlur stdDeviation="2"/>
<feComposite in2="hardAlpha" operator="out"/>
<feColorMatrix type="matrix" values="0 0 0 0 0 0 0 0 0 0 0 0 0 0 0 0 0 0 0.25 0"/>
<feBlend mode="normal" in2="BackgroundImageFix" result="effect1_dropShadow_2_17"/>
<feBlend mode="normal" in="SourceGraphic" in2="effect1_dropShadow_2_17" result="shape"/>
</filter>
<clipPath id="clip0_2_17">
<rect width="97" height="21" fill="white" transform="translate(4)"/>
</clipPath>
</defs>
</svg>
