<svg width="32" height="32" viewBox="0 0 32 32" fill="none" xmlns="http://www.w3.org/2000/svg">
<g filter="url(#filter0_d_6103_3826)">
<path d="M12.8867 21.3333C13.7151 21.3333 14.3867 20.6618 14.3867 19.8333C14.3867 19.0049 13.7151 18.3333 12.8867 18.3333C12.0582 18.3333 11.3867 19.0049 11.3867 19.8333C11.3867 20.6618 12.0582 21.3333 12.8867 21.3333Z" fill="#359740"/>
<path d="M22 21.3333C22.8284 21.3333 23.5 20.6618 23.5 19.8333C23.5 19.0049 22.8284 18.3333 22 18.3333C21.1716 18.3333 20.5 19.0049 20.5 19.8333C20.5 20.6618 21.1716 21.3333 22 21.3333Z" fill="#359740"/>
<path d="M26.0533 3.58C25.9913 3.50353 25.9131 3.44174 25.8243 3.39909C25.7356 3.35644 25.6385 3.33399 25.54 3.33333H11.66L12.0933 4.66667H24.6667L22.8867 12.6667H12.8867L9.84001 3.02C9.80706 2.91764 9.74983 2.82477 9.67321 2.74931C9.5966 2.67386 9.50287 2.61806 9.40001 2.58667L6.66668 1.74667C6.58263 1.72084 6.49432 1.71182 6.40679 1.72012C6.31926 1.72843 6.23422 1.75389 6.15653 1.79506C5.99962 1.8782 5.88217 2.02026 5.83001 2.19C5.77785 2.35974 5.79526 2.54325 5.8784 2.70015C5.96154 2.85706 6.10361 2.97451 6.27335 3.02667L8.66668 3.76L11.7267 13.4267L10.6333 14.32L10.5467 14.4067C10.2762 14.7183 10.1229 15.1145 10.1132 15.5271C10.1035 15.9396 10.2379 16.3426 10.4933 16.6667C10.6751 16.8876 10.906 17.063 11.1676 17.1788C11.4292 17.2945 11.7143 17.3475 12 17.3333H23.1267C23.3035 17.3333 23.4731 17.2631 23.5981 17.1381C23.7231 17.013 23.7933 16.8435 23.7933 16.6667C23.7933 16.4899 23.7231 16.3203 23.5981 16.1953C23.4731 16.0702 23.3035 16 23.1267 16H11.8933C11.8166 15.9974 11.7418 15.975 11.6762 15.935C11.6106 15.8951 11.5564 15.8389 11.5189 15.7718C11.4813 15.7048 11.4617 15.6293 11.4619 15.5524C11.4621 15.4756 11.4821 15.4002 11.52 15.3333L13.1267 14H23.42C23.5741 14.0038 23.7248 13.954 23.8463 13.8592C23.9679 13.7644 24.0528 13.6304 24.0867 13.48L26.2 4.14667C26.2203 4.04728 26.2176 3.94458 26.1922 3.84638C26.1668 3.74818 26.1193 3.65707 26.0533 3.58V3.58Z" fill="#359740"/>
</g>
<defs>
<filter id="filter0_d_6103_3826" x="0" y="0" width="32" height="32" filterUnits="userSpaceOnUse" color-interpolation-filters="sRGB">
<feFlood flood-opacity="0" result="BackgroundImageFix"/>
<feColorMatrix in="SourceAlpha" type="matrix" values="0 0 0 0 0 0 0 0 0 0 0 0 0 0 0 0 0 0 127 0" result="hardAlpha"/>
<feOffset dy="4"/>
<feGaussianBlur stdDeviation="2"/>
<feComposite in2="hardAlpha" operator="out"/>
<feColorMatrix type="matrix" values="0 0 0 0 0 0 0 0 0 0 0 0 0 0 0 0 0 0 0.25 0"/>
<feBlend mode="normal" in2="BackgroundImageFix" result="effect1_dropShadow_6103_3826"/>
<feBlend mode="normal" in="SourceGraphic" in2="effect1_dropShadow_6103_3826" result="shape"/>
</filter>
</defs>
</svg>
