<svg width="28" height="30" viewBox="0 0 28 30" fill="none" xmlns="http://www.w3.org/2000/svg">
<g filter="url(#filter0_d_6110_3860)">
<path d="M14 8.87579C12.2797 8.87579 10.8758 10.2797 10.8758 12C10.8758 13.7203 12.2797 15.1242 14 15.1242C15.7203 15.1242 17.1242 13.7203 17.1242 12C17.1242 10.2797 15.7203 8.87579 14 8.87579ZM23.3703 12C23.3703 10.7063 23.382 9.42423 23.3094 8.13283C23.2367 6.63283 22.8945 5.30158 21.7976 4.2047C20.6984 3.10548 19.3695 2.76564 17.8695 2.69298C16.5758 2.62033 15.2937 2.63204 14.0023 2.63204C12.7086 2.63204 11.4266 2.62033 10.1351 2.69298C8.63515 2.76564 7.3039 3.10783 6.20702 4.2047C5.1078 5.30392 4.76796 6.63283 4.6953 8.13283C4.62265 9.42658 4.63436 10.7086 4.63436 12C4.63436 13.2914 4.62265 14.5758 4.6953 15.8672C4.76796 17.3672 5.11015 18.6985 6.20702 19.7953C7.30624 20.8945 8.63515 21.2344 10.1351 21.307C11.4289 21.3797 12.7109 21.368 14.0023 21.368C15.2961 21.368 16.5781 21.3797 17.8695 21.307C19.3695 21.2344 20.7008 20.8922 21.7976 19.7953C22.8969 18.6961 23.2367 17.3672 23.3094 15.8672C23.3844 14.5758 23.3703 13.2938 23.3703 12V12ZM14 16.807C11.3398 16.807 9.19296 14.6602 9.19296 12C9.19296 9.33986 11.3398 7.19298 14 7.19298C16.6601 7.19298 18.807 9.33986 18.807 12C18.807 14.6602 16.6601 16.807 14 16.807ZM19.0039 8.11876C18.3828 8.11876 17.8812 7.6172 17.8812 6.99611C17.8812 6.37501 18.3828 5.87345 19.0039 5.87345C19.625 5.87345 20.1266 6.37501 20.1266 6.99611C20.1267 7.14359 20.0978 7.28966 20.0415 7.42595C19.9851 7.56224 19.9024 7.68607 19.7981 7.79036C19.6939 7.89464 19.57 7.97733 19.4337 8.03368C19.2974 8.09004 19.1514 8.11895 19.0039 8.11876V8.11876Z" fill="#359740"/>
</g>
<defs>
<filter id="filter0_d_6110_3860" x="-2" y="0" width="32" height="32" filterUnits="userSpaceOnUse" color-interpolation-filters="sRGB">
<feFlood flood-opacity="0" result="BackgroundImageFix"/>
<feColorMatrix in="SourceAlpha" type="matrix" values="0 0 0 0 0 0 0 0 0 0 0 0 0 0 0 0 0 0 127 0" result="hardAlpha"/>
<feOffset dy="4"/>
<feGaussianBlur stdDeviation="2"/>
<feComposite in2="hardAlpha" operator="out"/>
<feColorMatrix type="matrix" values="0 0 0 0 0 0 0 0 0 0 0 0 0 0 0 0 0 0 0.25 0"/>
<feBlend mode="normal" in2="BackgroundImageFix" result="effect1_dropShadow_6110_3860"/>
<feBlend mode="normal" in="SourceGraphic" in2="effect1_dropShadow_6110_3860" result="shape"/>
</filter>
</defs>
</svg>
