<svg width="48" height="48" viewBox="0 0 48 48" fill="none" xmlns="http://www.w3.org/2000/svg">
<g filter="url(#filter0_d_6108_2767)">
<circle cx="24" cy="20" r="20" fill="white"/>
<circle cx="24" cy="20" r="19.5" stroke="#FFCF55"/>
</g>
<path d="M30.5 15C28.9 12.6 25.5 14 24 15H23.5L21.5 14H18.5L15 16.5L16 21.5L23.5 28.5L25.5 26.5C33 19.5 32.5 18 30.5 15Z" fill="#FFCF55"/>
<path d="M31.6573 13.8009C30.6273 12.7823 29.2619 12.1606 27.8078 12.0482C26.3538 11.9357 24.9068 12.3398 23.7284 13.1875C22.4921 12.2805 20.9533 11.8693 19.4219 12.0365C17.8904 12.2038 16.4801 12.9372 15.475 14.089C14.4698 15.2408 13.9444 16.7255 14.0047 18.2441C14.0649 19.7627 14.7062 21.2024 15.7995 22.2733L21.8336 28.2346C22.3389 28.7251 23.0195 29 23.7284 29C24.4374 29 25.1179 28.7251 25.6232 28.2346L31.6573 22.2733C32.7918 21.1474 33.4286 19.6245 33.4286 18.0371C33.4286 16.4497 32.7918 14.9268 31.6573 13.8009ZM30.2872 20.9507L24.2531 26.9024C24.1845 26.9708 24.1027 27.0251 24.0127 27.0621C23.9226 27.0992 23.826 27.1183 23.7284 27.1183C23.6308 27.1183 23.5342 27.0992 23.4442 27.0621C23.3541 27.0251 23.2724 26.9708 23.2037 26.9024L17.1696 20.9219C16.4076 20.1536 15.9809 19.1215 15.9809 18.0467C15.9809 16.9719 16.4076 15.9398 17.1696 15.1715C17.9461 14.4153 18.9934 13.9912 20.0846 13.9912C21.1758 13.9912 22.2231 14.4153 22.9997 15.1715C23.09 15.2613 23.1975 15.3326 23.3159 15.3812C23.4343 15.4299 23.5613 15.4549 23.6895 15.4549C23.8178 15.4549 23.9448 15.4299 24.0632 15.3812C24.1816 15.3326 24.2891 15.2613 24.3794 15.1715C25.156 14.4153 26.2032 13.9912 27.2945 13.9912C28.3857 13.9912 29.433 14.4153 30.2095 15.1715C30.982 15.9297 31.4227 16.9562 31.4372 18.0311C31.4518 19.1059 31.039 20.1436 30.2872 20.9219V20.9507Z" fill="#FFCF55"/>
<defs>
<filter id="filter0_d_6108_2767" x="0" y="0" width="48" height="48" filterUnits="userSpaceOnUse" color-interpolation-filters="sRGB">
<feFlood flood-opacity="0" result="BackgroundImageFix"/>
<feColorMatrix in="SourceAlpha" type="matrix" values="0 0 0 0 0 0 0 0 0 0 0 0 0 0 0 0 0 0 127 0" result="hardAlpha"/>
<feOffset dy="4"/>
<feGaussianBlur stdDeviation="2"/>
<feComposite in2="hardAlpha" operator="out"/>
<feColorMatrix type="matrix" values="0 0 0 0 0 0 0 0 0 0 0 0 0 0 0 0 0 0 0.25 0"/>
<feBlend mode="normal" in2="BackgroundImageFix" result="effect1_dropShadow_6108_2767"/>
<feBlend mode="normal" in="SourceGraphic" in2="effect1_dropShadow_6108_2767" result="shape"/>
</filter>
</defs>
</svg>
